<svg xmlns="http://www.w3.org/2000/svg" version="1.1" width="1024" height="404">
<rect x="0" y="0" width="1024" height="404" fill="#544341" />
<g transform="scale(4.000000) translate(0.5 0.5)">
<polygon fill="#fbcac5" fill-opacity="0.572549" points="60,37 91,-16 219,35" />
<polygon fill="#0b0b0b" fill-opacity="0.772549" points="251,-16 271,97 150,116" />
<polygon fill="#dc956e" fill-opacity="0.623529" points="86,76 61,48 186,53" />
<polygon fill="#000000" fill-opacity="0.521569" points="75,44 22,-16 35,116" />
<polygon fill="#7f7399" fill-opacity="0.639216" points="178,-16 54,5 217,29" />
<polygon fill="#29252b" fill-opacity="0.862745" points="230,69 123,116 -16,91" />
<polygon fill="#78524e" fill-opacity="0.454902" points="227,68 216,21 47,93" />
<polygon fill="#e4ab8a" fill-opacity="0.447059" points="63,36 57,-1 187,41" />
<polygon fill="#bc9494" fill-opacity="0.525490" points="-14,2 -16,37 41,32" />
<polygon fill="#161214" fill-opacity="0.756863" points="39,31 66,-16 -16,-5" />
<polygon fill="#000200" fill-opacity="0.611765" points="271,70 211,20 231,-13" />
<polygon fill="#feb881" fill-opacity="0.419608" points="65,68 63,51 120,52" />
<polygon fill="#100000" fill-opacity="0.352941" points="73,49 125,32 177,45" />
<polygon fill="#b58c83" fill-opacity="0.533333" points="25,51 -16,56 26,72" />
<polygon fill="#000300" fill-opacity="0.592157" points="44,47 -16,51 9,36" />
<polygon fill="#090502" fill-opacity="0.454902" points="-16,93 61,63 51,116" />
<polygon fill="#000000" fill-opacity="0.827451" points="240,62 187,116 271,95" />
<polygon fill="#ffca91" fill-opacity="0.317647" points="119,5 82,39 152,39" />
<polygon fill="#776d8d" fill-opacity="0.592157" points="51,-16 62,27 145,-8" />
<polygon fill="#ab6952" fill-opacity="0.466667" points="169,67 224,54 120,47" />
<polygon fill="#070500" fill-opacity="0.533333" points="74,52 105,41 72,37" />
<polygon fill="#4d4854" fill-opacity="0.466667" points="51,101 141,76 63,60" />
<polygon fill="#c3a9b3" fill-opacity="0.403922" points="73,26 212,28 155,5" />
<polygon fill="#c36b52" fill-opacity="0.419608" points="130,37 215,42 197,23" />
<polygon fill="#000000" fill-opacity="0.490196" points="175,46 196,40 217,46" />
<polygon fill="#55517d" fill-opacity="0.517647" points="101,0 229,-16 209,17" />
<polygon fill="#0c0e15" fill-opacity="0.666667" points="173,85 94,99 253,116" />
<polygon fill="#ffba7b" fill-opacity="0.333333" points="147,62 82,61 97,47" />
<polygon fill="#000000" fill-opacity="0.478431" points="154,49 175,43 129,40" />
<polygon fill="#2d2e38" fill-opacity="0.486275" points="198,91 244,55 97,84" />
<polygon fill="#070a09" fill-opacity="0.521569" points="30,25 34,82 62,90" />
<polygon fill="#312a2e" fill-opacity="0.670588" points="67,51 55,6 35,50" />
<polygon fill="#040601" fill-opacity="0.800000" points="258,-16 269,53 229,50" />
<polygon fill="#5b2019" fill-opacity="0.470588" points="119,33 140,34 123,38" />
<polygon fill="#b45c32" fill-opacity="0.403922" points="95,47 140,60 185,47" />
<polygon fill="#b9662f" fill-opacity="0.490196" points="61,29 65,39 93,38" />
<polygon fill="#312526" fill-opacity="0.752941" points="-16,66 79,111 -9,99" />
<polygon fill="#c9aeb0" fill-opacity="0.356863" points="180,32 65,22 108,5" />
<polygon fill="#9f7a72" fill-opacity="0.478431" points="62,71 117,63 63,56" />
<polygon fill="#ffe9a2" fill-opacity="0.403922" points="100,38 120,22 80,29" />
<polygon fill="#ae979e" fill-opacity="0.525490" points="8,14 30,33 24,21" />
<polygon fill="#241209" fill-opacity="0.525490" points="203,54 170,42 196,42" />
<polygon fill="#815f5a" fill-opacity="0.356863" points="117,67 182,46 222,63" />
<polygon fill="#4d4247" fill-opacity="0.533333" points="60,47 52,56 38,14" />
<polygon fill="#6e4845" fill-opacity="0.439216" points="225,43 198,42 211,17" />
<polygon fill="#070a00" fill-opacity="0.407843" points="127,49 158,41 98,40" />
<polygon fill="#1b1c1c" fill-opacity="0.552941" points="-16,37 40,38 56,62" />
<polygon fill="#13150a" fill-opacity="0.501961" points="211,35 226,36 237,-16" />
<polygon fill="#222022" fill-opacity="0.643137" points="250,68 210,60 271,47" />
<polygon fill="#959fed" fill-opacity="0.282353" points="244,-8 235,-16 241,9" />
<polygon fill="#645979" fill-opacity="0.584314" points="58,9 53,-16 150,-7" />
<polygon fill="#937c92" fill-opacity="0.290196" points="57,16 200,17 127,-7" />
<polygon fill="#010200" fill-opacity="0.541176" points="244,116 271,63 212,71" />
<polygon fill="#000000" fill-opacity="0.498039" points="20,-2 4,-1 42,30" />
<polygon fill="#464462" fill-opacity="0.345098" points="194,-11 226,31 141,-16" />
<polygon fill="#010201" fill-opacity="0.501961" points="47,4 50,-14 60,26" />
<polygon fill="#a55946" fill-opacity="0.541176" points="192,43 146,37 178,31" />
<polygon fill="#b8866e" fill-opacity="0.411765" points="140,50 166,57 102,67" />
<polygon fill="#44424b" fill-opacity="0.443137" points="193,79 127,73 180,60" />
<polygon fill="#5d5765" fill-opacity="0.498039" points="17,78 -16,58 31,70" />
<polygon fill="#080703" fill-opacity="0.580392" points="37,79 63,48 58,84" />
<polygon fill="#0e110b" fill-opacity="0.466667" points="91,48 80,37 53,40" />
<polygon fill="#9d644b" fill-opacity="0.552941" points="9,29 29,37 -2,35" />
<polygon fill="#544b59" fill-opacity="0.400000" points="199,67 214,71 209,90" />
<polygon fill="#5c4f58" fill-opacity="0.498039" points="64,63 58,87 104,74" />
<polygon fill="#000100" fill-opacity="0.490196" points="187,73 200,73 194,64" />
<polygon fill="#bd826f" fill-opacity="0.505882" points="40,30 40,36 33,32" />
<polygon fill="#1a1312" fill-opacity="0.501961" points="33,33 25,19 47,-14" />
<polygon fill="#e88453" fill-opacity="0.501961" points="151,30 122,39 155,39" />
<polygon fill="#1e1e22" fill-opacity="0.560784" points="28,68 51,34 26,37" />
<polygon fill="#846d7d" fill-opacity="0.345098" points="212,39 211,7 176,22" />
<polygon fill="#c57846" fill-opacity="0.360784" points="102,48 65,50 62,64" />
<polygon fill="#7d422a" fill-opacity="0.427451" points="126,53 139,45 114,46" />
<polygon fill="#e1b59f" fill-opacity="0.490196" points="150,35 132,24 180,27" />
<polygon fill="#433437" fill-opacity="0.513725" points="32,2 40,21 23,0" />
<polygon fill="#866a6f" fill-opacity="0.482353" points="44,5 51,11 50,17" />
<polygon fill="#3b3c62" fill-opacity="0.376471" points="217,-15 160,-1 227,11" />
<polygon fill="#3c2d2c" fill-opacity="0.607843" points="32,114 56,88 103,90" />
<polygon fill="#ef9b4a" fill-opacity="0.478431" points="101,38 86,39 71,28" />
<polygon fill="#090a03" fill-opacity="0.552941" points="271,38 250,54 212,43" />
<polygon fill="#d66d28" fill-opacity="0.466667" points="126,39 102,38 116,33" />
<polygon fill="#ae8e8a" fill-opacity="0.368627" points="101,5 64,38 61,18" />
<polygon fill="#050702" fill-opacity="0.494118" points="6,36 35,42 -7,45" />
<polygon fill="#7f6a7d" fill-opacity="0.419608" points="13,8 -6,0 -16,-15" />
<polygon fill="#775648" fill-opacity="0.521569" points="22,50 7,56 -12,49" />
<polygon fill="#5e3932" fill-opacity="0.490196" points="193,54 201,45 233,52" />
<polygon fill="#956459" fill-opacity="0.466667" points="216,36 226,36 220,42" />
<polygon fill="#19130e" fill-opacity="0.454902" points="83,52 48,30 64,48" />
<polygon fill="#0c0d0a" fill-opacity="0.513725" points="114,44 112,38 99,45" />
<polygon fill="#8d6b65" fill-opacity="0.400000" points="122,75 150,58 81,68" />
<polygon fill="#373239" fill-opacity="0.501961" points="242,54 225,61 271,65" />
<polygon fill="#e5b8a4" fill-opacity="0.498039" points="113,20 122,34 82,25" />
<polygon fill="#8d584a" fill-opacity="0.619608" points="184,48 211,62 157,53" />
<polygon fill="#ffde88" fill-opacity="0.458824" points="103,58 101,50 92,52" />
<polygon fill="#000000" fill-opacity="0.552941" points="11,13 -16,0 -16,-16" />
<polygon fill="#bc9c95" fill-opacity="0.200000" points="163,33 188,19 199,41" />
<polygon fill="#18130d" fill-opacity="0.462745" points="131,47 181,47 159,39" />
<polygon fill="#3a231c" fill-opacity="0.525490" points="197,55 187,49 212,51" />
<polygon fill="#010500" fill-opacity="0.439216" points="240,5 206,-16 233,15" />
<polygon fill="#281e30" fill-opacity="0.427451" points="131,33 117,35 128,37" />
<polygon fill="#242225" fill-opacity="0.552941" points="44,33 20,39 52,64" />
<polygon fill="#a77f70" fill-opacity="0.486275" points="23,50 21,64 4,58" />
<polygon fill="#4f5986" fill-opacity="0.341176" points="-16,0 15,17 -16,27" />
<polygon fill="#12141b" fill-opacity="0.337255" points="114,116 229,84 137,83" />
<polygon fill="#a25144" fill-opacity="0.341176" points="193,34 168,42 219,41" />
<polygon fill="#080803" fill-opacity="0.423529" points="226,61 271,71 209,94" />
<polygon fill="#53423f" fill-opacity="0.486275" points="223,26 214,30 207,21" />
<polygon fill="#423e47" fill-opacity="0.454902" points="102,92 147,77 63,80" />
<polygon fill="#655948" fill-opacity="0.490196" points="29,116 12,98 23,97" />
<polygon fill="#090701" fill-opacity="0.494118" points="92,91 141,116 109,113" />
<polygon fill="#835a58" fill-opacity="0.474510" points="214,55 196,52 211,62" />
<polygon fill="#050504" fill-opacity="0.541176" points="214,61 222,62 223,57" />
<polygon fill="#bf8b70" fill-opacity="0.352941" points="26,22 29,31 19,37" />
<polygon fill="#42404c" fill-opacity="0.619608" points="-16,79 24,77 -16,64" />
<polygon fill="#0f1311" fill-opacity="0.552941" points="210,17 225,16 214,11" />
<polygon fill="#7d677c" fill-opacity="0.239216" points="75,7 160,11 113,-14" />
<polygon fill="#db7140" fill-opacity="0.478431" points="120,50 110,55 114,48" />
<polygon fill="#59403e" fill-opacity="0.501961" points="46,33 52,30 36,15" />
<polygon fill="#ffe278" fill-opacity="0.400000" points="118,29 95,35 106,38" />
<polygon fill="#7f5349" fill-opacity="0.501961" points="215,51 209,46 226,49" />
<polygon fill="#904d43" fill-opacity="0.537255" points="181,41 157,39 170,35" />
<polygon fill="#574a50" fill-opacity="0.588235" points="18,-16 5,-16 28,6" />
<polygon fill="#11100d" fill-opacity="0.564706" points="61,79 29,67 26,50" />
<polygon fill="#b9623d" fill-opacity="0.525490" points="135,33 149,40 121,40" />
<polygon fill="#bca1a4" fill-opacity="0.396078" points="148,12 190,31 111,21" />
<polygon fill="#3d2f33" fill-opacity="0.533333" points="27,96 15,84 37,84" />
<polygon fill="#7a4114" fill-opacity="0.372549" points="90,50 103,45 83,46" />
<polygon fill="#14100f" fill-opacity="0.607843" points="9,-16 56,28 31,-16" />
<polygon fill="#010000" fill-opacity="0.458824" points="52,76 28,76 49,96" />
<polygon fill="#151112" fill-opacity="0.545098" points="28,3 44,30 34,30" />
<polygon fill="#110f09" fill-opacity="0.396078" points="199,64 224,76 216,66" />
<polygon fill="#372313" fill-opacity="0.501961" points="111,39 113,52 97,39" />
<polygon fill="#26252b" fill-opacity="0.572549" points="151,82 104,97 133,97" />
<polygon fill="#48414d" fill-opacity="0.486275" points="201,86 212,67 199,72" />
<polygon fill="#e1a27d" fill-opacity="0.247059" points="108,49 92,63 126,65" />
<polygon fill="#986a69" fill-opacity="0.549020" points="199,31 213,26 211,34" />
<polygon fill="#805d5b" fill-opacity="0.541176" points="188,58 210,54 211,64" />
<polygon fill="#070900" fill-opacity="0.282353" points="271,6 208,23 270,31" />
<polygon fill="#b99fa9" fill-opacity="0.419608" points="105,9 71,19 130,18" />
<polygon fill="#a97e6d" fill-opacity="0.486275" points="95,66 64,50 65,62" />
<polygon fill="#0d0f0c" fill-opacity="0.482353" points="130,39 142,45 114,45" />
<polygon fill="#695b62" fill-opacity="0.447059" points="28,77 -5,61 32,68" />
<polygon fill="#947772" fill-opacity="0.368627" points="26,54 -16,66 26,66" />
<polygon fill="#1e1312" fill-opacity="0.501961" points="47,30 60,29 64,38" />
<polygon fill="#775c5e" fill-opacity="0.521569" points="215,64 223,62 220,68" />
<polygon fill="#29221f" fill-opacity="0.478431" points="227,73 225,66 214,65" />
<polygon fill="#915e4f" fill-opacity="0.435294" points="198,58 155,61 186,47" />
<polygon fill="#e8a678" fill-opacity="0.505882" points="116,35 129,30 111,31" />
<polygon fill="#101005" fill-opacity="0.517647" points="242,44 217,31 227,24" />
<polygon fill="#38363e" fill-opacity="0.494118" points="62,49 62,40 32,48" />
<polygon fill="#e9a78c" fill-opacity="0.501961" points="37,31 39,34 41,33" />
<polygon fill="#ee9955" fill-opacity="0.486275" points="103,49 85,49 80,57" />
<polygon fill="#595171" fill-opacity="0.533333" points="217,12 218,0 212,7" />
<polygon fill="#12110f" fill-opacity="0.498039" points="41,113 24,95 44,95" />
<polygon fill="#292b39" fill-opacity="0.368627" points="205,76 211,95 175,78" />
<polygon fill="#814e31" fill-opacity="0.454902" points="82,49 67,50 76,54" />
<polygon fill="#5a5469" fill-opacity="0.470588" points="82,84 70,88 59,85" />
<polygon fill="#cf8456" fill-opacity="0.368627" points="64,39 78,33 66,28" />
<polygon fill="#6f6485" fill-opacity="0.427451" points="166,5 190,20 214,18" />
<polygon fill="#824a38" fill-opacity="0.419608" points="130,56 113,46 132,50" />
<polygon fill="#83645e" fill-opacity="0.423529" points="62,60 77,73 86,67" />
<polygon fill="#7e453b" fill-opacity="0.494118" points="161,48 183,46 172,56" />
<polygon fill="#080904" fill-opacity="0.572549" points="248,49 218,52 233,46" />
<polygon fill="#281e21" fill-opacity="0.525490" points="52,21 35,31 46,17" />
<polygon fill="#52474d" fill-opacity="0.454902" points="154,70 191,61 184,72" />
<polygon fill="#3c3d51" fill-opacity="0.501961" points="239,11 242,-4 243,9" />
<polygon fill="#1e1012" fill-opacity="0.568627" points="-13,86 -6,95 19,87" />
<polygon fill="#78401a" fill-opacity="0.501961" points="108,45 114,50 96,45" />
<polygon fill="#8c6259" fill-opacity="0.474510" points="49,28 49,25 46,26" />
<polygon fill="#5c4a4c" fill-opacity="0.419608" points="119,83 140,70 76,73" />
<polygon fill="#0b0c09" fill-opacity="0.568627" points="241,-4 271,24 248,18" />
<polygon fill="#403233" fill-opacity="0.596078" points="26,115 85,90 61,87" />
<polygon fill="#1b1a16" fill-opacity="0.494118" points="110,42 76,49 89,39" />
<polygon fill="#101210" fill-opacity="0.439216" points="189,73 194,62 196,76" />
<polygon fill="#322929" fill-opacity="0.556863" points="197,70 203,62 195,62" />
<polygon fill="#99625a" fill-opacity="0.509804" points="214,39 222,39 217,43" />
<polygon fill="#1b1517" fill-opacity="0.490196" points="55,3 60,29 47,5" />
<polygon fill="#1f1619" fill-opacity="0.541176" points="56,29 43,22 37,9" />
<polygon fill="#0a0e0b" fill-opacity="0.505882" points="201,43 178,43 189,47" />
<polygon fill="#88554d" fill-opacity="0.490196" points="202,50 210,46 202,46" />
<polygon fill="#d68c62" fill-opacity="0.470588" points="155,34 133,32 135,38" />
<polygon fill="#0f0e0c" fill-opacity="0.549020" points="49,73 58,91 60,57" />
<polygon fill="#d8783f" fill-opacity="0.439216" points="114,54 101,49 123,49" />
<polygon fill="#8a7986" fill-opacity="0.478431" points="4,26 25,22 7,15" />
<polygon fill="#d4714c" fill-opacity="0.509804" points="120,39 127,38 112,35" />
<polygon fill="#0c0c14" fill-opacity="0.592157" points="211,95 135,96 184,116" />
<polygon fill="#c1744d" fill-opacity="0.470588" points="135,57 159,54 134,49" />
<polygon fill="#544d6d" fill-opacity="0.447059" points="226,2 195,10 210,13" />
<polygon fill="#524143" fill-opacity="0.501961" points="51,19 57,27 53,16" />
<polygon fill="#2c2222" fill-opacity="0.541176" points="109,108 93,89 75,89" />
<polygon fill="#8e788f" fill-opacity="0.450980" points="174,11 208,24 167,20" />
<polygon fill="#0f1308" fill-opacity="0.509804" points="243,35 236,47 215,45" />
<polygon fill="#dcac8c" fill-opacity="0.407843" points="68,31 85,34 87,22" />
<polygon fill="#312121" fill-opacity="0.662745" points="19,96 9,78 -5,81" />
<polygon fill="#181816" fill-opacity="0.482353" points="25,50 33,73 46,56" />
<polygon fill="#010100" fill-opacity="0.662745" points="115,98 178,115 53,115" />
<polygon fill="#9a6f60" fill-opacity="0.549020" points="4,27 21,37 30,31" />
<polygon fill="#734f51" fill-opacity="0.501961" points="227,52 218,52 220,56" />
<polygon fill="#6c6b9f" fill-opacity="0.462745" points="231,-16 241,-16 242,4" />
<polygon fill="#885a4d" fill-opacity="0.537255" points="-16,31 3,37 4,27" />
</g>
</svg>